<svg xmlns="http://www.w3.org/2000/svg" xmlns:xlink="http://www.w3.org/1999/xlink" version="1.1" x="0px" y="0px" viewBox="0 0 64 64" style="enable-background:new 0 0 64 64;" xml:space="preserve"><g><path d="M50.74,2.93H40.45c-0.391,0-0.75,0.23-0.91,0.58l-2.6,5.75H16.99c-0.55,0-1,0.45-1,1v4.69h-2.73c-0.55,0-1,0.45-1,1v5.21   c0,0.55,0.45,1,1,1h2.16v26.55c0,6.82,5.55,12.36,12.37,12.36h5.05c6.82,0,12.37-5.54,12.37-12.36V22.16h2.16c0.55,0,1-0.45,1-1   v-5.21c0-0.55-0.45-1-1-1h-2.73v-4.69c0-0.55-0.449-1-1-1H42.16l0.67-1.49h7.91c0.55,0,1-0.45,1-1V3.93   C51.74,3.37,51.29,2.93,50.74,2.93z M43.21,22.16v26.55c0,5.71-4.65,10.36-10.37,10.36h-5.05c-5.72,0-10.37-4.65-10.37-10.36V22.16   h13.67L19.85,46.91c-0.16,0.36-0.1,0.78,0.16,1.07c0.2,0.22,0.47,0.34,0.76,0.34c0.09,0,0.19-0.01,0.29-0.04l3.23-0.99   c0.27-0.08,0.5-0.28,0.62-0.53l11.46-24.6H43.21z"/><circle cx="39" cy="27.75" r="2.81"/><path d="M37.23,35c0,1.55-1.261,2.81-2.811,2.81S31.6,36.55,31.6,35s1.27-2.81,2.82-2.81S37.23,33.45,37.23,35z"/><path d="M40.48,44.17c0,1.55-1.261,2.81-2.811,2.81s-2.82-1.26-2.82-2.81c0-1.55,1.271-2.82,2.82-2.82S40.48,42.62,40.48,44.17z"/><path d="M33.23,48.92c0,1.55-1.26,2.81-2.811,2.81c-1.55,0-2.82-1.26-2.82-2.81c0-1.55,1.27-2.82,2.82-2.82   C31.97,46.1,33.23,47.37,33.23,48.92z"/><circle cx="22.75" cy="53.5" r="2.81"/><path d="M38.81,54.67c0,1.55-1.26,2.81-2.81,2.81s-2.81-1.26-2.81-2.81c0-1.55,1.26-2.82,2.81-2.82S38.81,53.12,38.81,54.67z"/><path d="M24.98,28.42c0,1.55-1.26,2.81-2.81,2.81c-1.55,0-2.82-1.26-2.82-2.81c0-1.55,1.27-2.82,2.82-2.82   C23.72,25.6,24.98,26.87,24.98,28.42z"/></g></svg>