<?xml version="1.0" encoding="UTF-8" standalone="no"?>
<svg
   xmlns:dc="http://purl.org/dc/elements/1.1/"
   xmlns:cc="http://creativecommons.org/ns#"
   xmlns:rdf="http://www.w3.org/1999/02/22-rdf-syntax-ns#"
   xmlns:svg="http://www.w3.org/2000/svg"
   xmlns="http://www.w3.org/2000/svg"
   viewBox="0 0 4000 4000"
   height="4000"
   width="4000"
   xml:space="preserve"
   id="svg2"
   version="1.1"><metadata
     id="metadata8"><rdf:RDF><cc:Work
         rdf:about=""><dc:format>image/svg+xml</dc:format><dc:type
           rdf:resource="http://purl.org/dc/dcmitype/StillImage" /></cc:Work></rdf:RDF></metadata><defs
     id="defs6" /><g
     transform="matrix(1.3333333,0,0,-1.3333333,0,4000)"
     id="g10"><g
       transform="scale(0.1)"
       id="g12"><g
         transform="scale(1.84049)"
         id="g14"><path
           id="path16"
           style="fill:#f5f5f5;fill-opacity:1;fill-rule:nonzero;stroke:none"
           d="M 0,0 H 16300 V 16300 H 0 Z" /></g><g
         transform="scale(1.79394)"
         id="g18"><path
           id="path20"
           style="fill:#f6f2eb;fill-opacity:1;fill-rule:nonzero;stroke:none"
           d="m 8361.46,16300 c -1007.4,0 -1919.32,-408.3 -2579.57,-1068.5 -660.25,-660.3 -1068.5,-1572.2 -1068.5,-2579.6 V 4070.99 c 0,-2014.79 1633.31,-3648.105 3648.1,-3648.105 1007.38,0 1919.41,408.295 2579.61,1068.505 660.2,660.23 1068.5,1572.17 1068.5,2579.58 v 8580.93 c 0,2014.8 -1633.4,3648.1 -3648.11,3648.1 z" /></g><g
         transform="scale(1.27971)"
         id="g22"><path
           id="path24"
           style="fill:#e5d7ca;fill-opacity:1;fill-rule:nonzero;stroke:none"
           d="m 11698.1,6527.33 c -2.3,0 -4.7,-0.02 -7,-0.08 l -23.4,-1.47 c -67,-7.81 -172.1,-46.95 -315.4,-117.36 -810.9,-447 -1312,-713.27 -1503.24,-798.83 -39.77,-19.44 -82.81,-39.22 -129.09,-59.34 C 9508.59,5458.34 9229.2,5359.1 8881.78,5252.52 8562.43,5158.11 7879.48,5050.33 6833.01,4929.24 7206.48,2565.58 9252.86,758.137 11721.4,758.137 c 1366.6,0 2603.4,553.623 3499.3,1449.413 459.1,459.19 828.4,1007.98 1079.3,1617.92 l -20.1,80.37 c -97.1,337.45 -297.7,618.88 -601.7,844.31 -188.6,150.12 -483.6,287.29 -885,411.49 l -1403.5,324.6 -0.5,-0.12 -610.2,141.36 c -121.9,63.42 -397.1,327.28 -825.5,791.53 -89.8,72.21 -175,108.32 -255.4,108.32 z" /></g><path
         id="path26"
         style="fill:#d6c6b7;fill-opacity:1;fill-rule:nonzero;stroke:none"
         d="m 11985.1,7091.52 c 194.2,-46.64 451.9,1.53 773.2,144.53 121.9,52.97 270.3,126.02 445.2,219.11 l 1476.9,807.57 c 208.9,77.15 357.1,68.95 444.7,-24.64 30,-37.15 51.7,-84.54 65.1,-142.15 22.5,-232.15 44.6,-377.11 66.2,-434.92 30.5,-107.31 82.4,-240.2 155.8,-398.64 47.8,-104.33 106,-210.47 174.7,-318.36 20,-38.94 154.1,-227.5 402.2,-565.7 27.7,-41.21 53.7,-90.16 77.9,-146.91 39.1,-85.43 28.7,-167.62 -31.1,-246.64 -356.9,-360.04 -762.1,-561.53 -1215.8,-604.42 -334.8,-65.62 -863.7,-1.21 -1586.5,193.17 z" /><g
         transform="scale(1.33114)"
         id="g28"><path
           id="path30"
           style="fill:#cdb9b2;fill-opacity:1;fill-rule:nonzero;stroke:none"
           d="m 13633.3,5714.62 c -77.4,0 -173.4,-35.01 -287.8,-105.03 -171.2,-122.81 -329,-234.62 -473.6,-335.39 l 0.6,-0.17 -0.4,-0.12 c -445,-309.88 -764.1,-515.65 -957.3,-617.31 -2.1,-1.08 -4.2,-2.17 -6.3,-3.22 -465,-239.19 -912.6,-414.21 -1342.7,-525.05 -434.3,-104.03 -852.76,-156.05 -1255.47,-156.05 -524.45,0 -1022.12,88.24 -1492.96,264.69 l -0.41,-0.12 L 13089,1089.5 c 581.7,241.07 1105.1,594.3 1543.6,1032.77 375.1,375.06 687.7,812.27 921.2,1294.88 4.7,8.72 8.9,17.43 13.1,26.21 14,-8.69 27.8,-17.4 41.6,-26.21 42.3,-26.93 84,-54.37 125.1,-82.28 l -0.4,-0.12 c 0,0.12 0,0.09 0,0.09 22.4,-14.96 44.3,-30.11 65.7,-45.37 301.4,620.45 479.1,1312.08 501.1,2042.87 -13.2,5.4 -27,10.41 -41.4,15.02 -12.5,3.35 -24.6,6.49 -36.3,9.39 l -0.5,-0.12 c -77.6,19.37 -139.8,29.08 -186.7,29.18 -3.5,-0.27 -7,-0.54 -10.6,-0.8 -386.3,-28.87 -666.3,-43.31 -839.9,-43.31 -64,0 -113.6,1.96 -148.7,5.9 -471.6,96.78 -867.2,210.81 -1186.8,342.01 -68.4,15.76 -123.8,23.63 -166.1,23.63 -4,0 -7.9,-0.06 -11.7,-0.21 l -9.7,-0.08 c -9.2,1.11 -18.6,1.67 -28.3,1.67 z" /></g><g
         transform="scale(1.28753)"
         id="g32"><path
           id="path34"
           style="fill:#af9992;fill-opacity:1;fill-rule:nonzero;stroke:none"
           d="m 14057.2,5803.92 c -130,0 -263.6,-39.74 -406.1,-108.64 v -0.12 c -8.6,-4.07 -17.3,-8.31 -25.9,-12.71 -30.2,-15.2 -168.5,-102.67 -353.7,-221.29 l 0.4,-0.13 c -382.6,-244.65 -964.3,-622.07 -1206.3,-770.76 l 4058,-1516.1 c 50.1,89.4 97.5,180.48 142.2,273.11 l 1.5,-0.12 c -0.8,0.39 -1.2,0.6 -1.2,0.63 11.5,23.79 22.8,47.67 33.9,71.64 -626.6,405.81 -1014.1,670.94 -1167.2,790.3 -156.7,122.17 -290,259.25 -416,402.47 -138.2,157.19 -220.5,432.21 -222.9,847.29 -55.6,102.33 -130.9,172.38 -226.7,207.3 -69.5,25.33 -139.2,37.13 -210,37.13 z" /></g><g
         transform="scale(1.29022)"
         id="g36"><path
           id="path38"
           style="fill:#b99795;fill-opacity:1;fill-rule:nonzero;stroke:none"
           d="m 8662.38,6494.74 c -42.49,0 -83.54,-5.48 -123.17,-16.41 -49.56,-13.72 -93.22,-28.46 -130.91,-44.23 -37.7,-15.75 -77.26,-35.1 -118.71,-58.05 -41.45,-22.92 -85.74,-47.22 -132.88,-72.9 -47.12,-25.67 -96.92,-52.74 -149.42,-81.17 -52.46,-28.43 -108.17,-58.13 -167.15,-89.1 -58.95,-30.94 -120.93,-63.64 -185.9,-98.04 -64.96,-34.42 -133.18,-69.6 -204.6,-105.6 -71.45,-36 -146.5,-72.81 -225.17,-110.44 -78.65,-37.63 -160.06,-74.48 -244.23,-110.54 -84.14,-36.06 -170.18,-70.36 -258.13,-102.94 -1.54,-0.57 -3.09,-1.15 -4.63,-1.73 -66.67,-24.58 -134.15,-47.41 -202.43,-68.45 -20.22,-6.23 -40.51,-12.33 -60.86,-18.22 -6.62,-1.94 -13.28,-3.85 -19.91,-5.73 C 6513.66,2711.93 8807.67,466.976 11626,466.976 c 1434.1,0 2732.5,581.364 3672.3,1521.094 407.3,407.28 747.2,881.91 1001.7,1405.74 -22.1,15.75 -44.5,31.34 -67.2,46.81 -7.6,-15.65 -15.3,-31.24 -23,-46.81 l -0.5,-0.12 c 7.8,15.69 15.4,31.28 22.9,46.93 -42,28.79 -84.9,57.1 -128.6,84.92 -14.2,9.06 -28.5,18.08 -43,27.01 -4.3,-9.03 -8.6,-18.01 -13,-27.01 l -0.4,-0.12 c 4.4,9.21 8.7,18.14 12.9,27.13 -54.1,33.82 -109.9,66.79 -167.3,98.91 -72.6,40.66 -146.6,80.44 -221.8,119.35 -75.3,38.9 -151.6,76.75 -228.9,113.47 -77.4,36.76 -155.9,71.63 -235.7,104.67 -79.7,33.03 -160.6,63.88 -242.5,92.58 -82,28.73 -165.2,55.86 -249.6,81.41 -84.4,25.59 -168.9,48.96 -253.6,70.15 -84.6,21.2 -168.8,40.63 -252.8,58.35 -83.9,17.68 -168.1,34.88 -252.5,51.56 -84.4,16.71 -167.3,32.51 -248.7,47.44 -81.3,14.96 -160.7,30.3 -238,46.11 -77.4,15.77 -154.3,32.24 -230.8,49.41 -76.5,17.19 -151.4,35.24 -224.6,54.13 -73.3,18.92 -143.2,38.78 -209.9,59.58 -66.6,20.84 -132,42.42 -196.1,64.76 -64,22.35 -119.5,43.78 -166.5,64.34 -46.9,20.53 -90.9,40.94 -131.9,61.13 -41,20.22 -78.9,40.05 -113.7,59.55 -34.8,19.5 -68.5,38.73 -100.9,57.71 -32.4,18.95 -78.3,48.62 -137.8,88.92 -59.6,40.33 -116.2,79.62 -170,117.92 -53.8,38.3 -105.4,73.93 -154.8,106.87 -49.3,32.97 -96.7,61.77 -141.9,86.48 -45.3,24.67 -86.8,42.69 -124.6,54.03 -35.9,10.85 -79.2,16.23 -129.9,16.23 -2.6,0 -5.2,0 -7.8,-0.03 -54.1,-0.57 -100,-3.27 -137.8,-8.05 -37.8,-4.78 -77.5,-10.9 -119.2,-18.38 -41.7,-7.48 -85.9,-15.71 -132.9,-24.67 -46.9,-8.99 -95.9,-18.23 -147.3,-27.77 -51.2,-9.53 -103.1,-18.19 -155.5,-26 -52.5,-7.84 -105.5,-13.5 -158.9,-17.04 -36,-2.37 -71.8,-3.58 -107.4,-3.58 -17.4,0 -34.8,0.31 -52.2,0.85 -52.8,1.73 -99.9,7.81 -141.2,18.2 -41.3,10.41 -80.8,23.58 -118.55,39.53 -37.76,15.96 -75.48,34.16 -113.2,54.56 -37.75,20.44 -74.66,43.6 -110.75,69.55 -31.19,22.4 -61.61,45.83 -91.31,70.27 l -0.43,-0.13 c -4.42,3.94 -8.93,7.88 -13.56,11.78 -34.12,28.65 -67.12,59.29 -98.98,91.83 -31.87,32.55 -63.82,67.21 -95.82,103.94 -32,36.72 -63.1,74.29 -93.31,112.65 -30.21,38.4 -59.82,78.93 -88.86,121.56 -29.03,42.63 -58.4,87.53 -88.13,134.64 -29.73,47.14 -61.07,93.94 -94.04,140.42 -32.94,46.5 -67.88,89.92 -104.78,130.25 -36.94,40.32 -77.51,73.17 -121.68,98.55 -44.14,25.36 -93.22,39.75 -147.17,43.17 -10.81,0.69 -21.53,1.03 -32.15,1.03 z" /></g><g
         transform="scale(1.1855)"
         id="g40"><path
           id="path42"
           style="fill:#a88381;fill-opacity:1;fill-rule:nonzero;stroke:none"
           d="m 9221.65,6968.52 c -59.71,0 -125.31,-17.16 -209.33,-54.46 -705.53,-313.23 -1322.25,-424.13 -1828.83,-424.13 -12.55,0 -25.01,0.06 -37.43,0.19 l -0.43,-329.77 v 329.77 c -68.76,0.76 -135.85,3.59 -200.77,8.24 l -0.42,-0.13 v -337.88 c 0,-3152.69 2555.77,-5708.439 5708.46,-5708.439 1386.7,0 2658.1,494.581 3647.1,1316.789 l -0.5,-0.13 c -149.7,-36.88 -299,-67.55 -448.4,-91.8 -0.1,-0.07 -0.2,-0.17 -0.3,-0.23 l -0.5,-0.14 c -283.5,-45.77 -566.8,-68.76 -850.4,-68.76 -745.2,0 -1492.7,158.75 -2241.8,478.07 -836.1,356.46 -1381.6,839.34 -1761.5,1353.23 -200.5,271.15 -662.7,1285.75 -1324.95,3120.58 -72.55,201.03 -171.6,301.06 -239.05,340.14 -76.25,44.18 -139.34,68.86 -210.95,68.86 z" /></g><g
         transform="scale(1.42479)"
         id="g44"><path
           id="path46"
           style="fill:#c86e75;fill-opacity:1;fill-rule:nonzero;stroke:none"
           d="m 9156.26,16300 c -845.38,0 -1550.28,-664.3 -1591.46,-1517.8 -42.41,-879.7 636.27,-1627.1 1515.91,-1669.6 0.24,0 0.46,0 0.71,0 0.3,0 0.63,0 0.93,0 l 0.41,-0.1 c 25.42,-1.1 50.86,-1.7 76.05,-1.7 845.39,0 1550.29,664.3 1591.49,1517.8 42.3,878.8 -635.1,1625.7 -1513.63,1669.3 l -0.38,-0.1 c -0.63,0.2 -1.29,0.3 -1.95,0.3 -25.71,1.2 -52.58,1.9 -78.08,1.9 z" /></g><g
         transform="scale(1.21388)"
         id="g48"><path
           id="path50"
           style="fill:#a06c6c;fill-opacity:1;fill-rule:nonzero;stroke:none"
           d="m 11422.5,15237.4 c 18.9,-31.3 38.7,-63.4 59.4,-96.2 l 77.8,-280.4 z m 1242.3,-1.3 -136.7,-375.3 77.6,279.4 h -0.1 c 21.6,34 41.4,66 59.2,95.9 z m -67.2,-108.5 -88.5,-319.2 -13.8,-37.7 65.3,299.9 v 0 c 12.8,19.6 25.2,38.6 37,57 z m -1107.6,0.9 c 12.1,-19 24.5,-38.2 37.2,-57.7 v -0.1 l 65.3,-300 -13.7,37.7 z m 1021.2,-131.8 -77.8,-262.1 50.1,221.3 c 9.5,13.8 18.7,27.4 27.7,40.8 z m -934.4,-0.5 c 9.1,-13.5 18.3,-27.1 27.7,-40.8 l 50,-220.7 z m 131.4,-191 c 9,-14.3 17.2,-27.5 24.5,-39.5 v 0 l 54.1,-255.9 z m 671.5,0 -78.6,-295.4 54,255.9 c 7.3,12 15.5,25.1 24.5,39.5 z m -343.3,-393 v -0.1 z m 0,0 v -0.1 z m 0,0 v -0.1 c 0,0.1 0,0.1 0,0.1 z m 0,0 v -0.1 z m 0,0 v -0.1 0.1 -0.1 z m -296.8,342.2 c 16,-26.5 27.3,-46.4 34,-59.9 0.7,-1.3 1.4,-2.7 2.1,-4 l 40.4,-290.9 -7.6,28.5 z m 608.7,0 -69,-326.3 -7.5,-28.4 40.4,290.8 v 0 c 0.7,1.3 1.4,2.7 2.1,4 6.7,13.5 18,33.4 34,59.9 z m -456.8,-360.7 0.2,-1.3 -2.2,-3.5 1.7,4 v 0.1 z m 304.9,0 0.2,-0.7 v -0.1 l 1.8,-4 -2.2,3.5 z m 357.5,666.8 -69.7,-320.4 -131.2,-360.1 66,291.3 c 0.1,0.2 0.2,0.4 0.3,0.6 l 100.1,336.9 c 11.9,17.6 23.4,34.9 34.5,51.7 z m -1020,0.1 c 11.3,-17.3 22.9,-34.7 34.7,-52.2 v -0.1 l 100,-336.4 c 0,-0.2 0.1,-0.4 0.3,-0.6 l 65.9,-291.2 -131.1,360 z m 462.2,-665.3 0.1,-2 v -7 l -0.4,-7.2 -0.2,-1.7 z m 95.7,0 0.5,-17.9 -0.2,1.7 -0.5,7.2 v 7 z m -167.3,17 h 16.7 v 0 l -0.4,-6.9 -1,-8.2 -1.6,-8.1 -1.4,-5.3 -3.4,-4.8 -6.7,-8.7 v 0 z m 238.9,-0.3 -2.2,-41.7 v 0 l -6.8,8.7 -3.3,4.8 -1.4,5.3 -1.6,8.1 -1,8.2 -0.4,6.4 5.6,-0.1 c 3.8,0.1 7.5,0.2 11.1,0.3 z m -205.4,0.3 6.8,-0.1 v 0 l 0.5,-7.1 -1.4,-4.9 -4.8,-13 -5.4,-13 -2.6,-5.4 -0.5,-0.7 0.8,1.6 v 0 l 2.2,5.6 h 0.1 l 1.8,5.6 v 0.1 l 1.4,5.6 v 0.1 l 1,5.7 v 0 l 0.6,5.8 v 0 l 0.1,5.7 v 0 l -0.3,5.7 v 0.1 z m 165.1,-0.4 h 6.7 v -0.1 l -0.2,-2.1 v -0.1 l -0.3,-5.7 v 0 l 0.1,-5.7 v 0 l 0.5,-5.8 v 0 l 1,-5.7 v -0.1 l 1.5,-5.6 v -0.1 l 1.8,-5.6 v 0 l 2.3,-5.6 v 0 l 0.7,-1.6 -0.4,0.7 -2.6,5.4 -5.5,13 -4.7,13 -1.5,4.9 z m -114.1,0.2 h 10.8 v -0.1 -2.7 l -0.6,-10.1 -1.3,-10 -1.3,-6.1 -3.3,-6.7 -5.4,-9.5 -3.6,-5.7 v -0.2 z m 59.1,-0.1 h 10.7 l 4.8,-50.8 -3.6,5.7 -5.4,9.5 -3.3,6.8 -1.3,6 -1.4,10 -0.5,10.1 z m -151.5,0.4 v -0.2 c 0.2,0.1 0.3,0.2 0.4,0.1 h 3.1 l 2.4,-46.8 -3.5,-4 -0.4,-0.4 z m 254.7,-0.1 -2.1,-51.1 v -0.1 l -0.3,0.4 -3.6,4 2.5,46.6 v -0.1 c 1.1,0.1 2.3,0.2 3.5,0.3 z m -236.9,-36.4 -1,-2.8 -3.1,-7.8 -3,-6.5 v -0.1 l -0.5,7.9 2.2,2.5 h 0.1 z m 219.1,0 5.3,-6.8 v 0 l 2.2,-2.5 -0.4,-7.8 v -0.1 l -3.1,6.6 -3.1,7.8 z m -243.9,36.8 c 0.9,-0.1 1.7,-0.1 2.6,-0.1 l 2.2,-55.8 v 0 l -0.6,-0.7 v 0 l -7.2,50.7 0.5,0.9 c 0,0 0,0 0,0 z m 268.7,-0.1 2.5,-4.9 c 0,0 0,0 0,0 l 0.5,-0.9 -7.2,-50.7 -0.7,0.7 v 0 l 2.3,55.7 -0.1,-0.2 c 0.9,0.2 1.8,0.3 2.7,0.3 z m -263.7,-59.4 0.1,-3.7 v -0.2 l -0.5,3.6 z m 258.7,0 0.3,-0.3 v 0 l -0.5,-3.4 z m -288.7,61.8 v -0.1 c 1.3,-0.1 2.6,-0.3 4,-0.4 v -0.1 l 2.1,-14.8 -2.3,-6.2 -2.7,-6 -3.2,-6.1 -3.6,-6 -3.5,-5.1 -2.3,-2.9 -8.7,-9.9 -8.1,-8.3 v -0.1 l 4.1,6.4 c 0,0.1 0.1,0.2 0.1,0.3 l 6.2,10.9 c 0,0 0,0.1 0.1,0.2 l 5.4,11.1 c 0,0 0.1,0.1 0.1,0.2 l 4.6,11.2 c 0.1,0.1 0.1,0.1 0.1,0.2 l 4,11.4 c 0,0.1 0,0.2 0,0.2 l 3.2,11.5 c 0,0.1 0,0.1 0,0.2 z m 318.6,-0.1 0.5,-2.1 c 0,-0.1 0,-0.1 0,-0.2 l 3.2,-11.5 c 0,0 0,-0.1 0,-0.2 l 3.9,-11.4 c 0,0 0.1,-0.1 0.1,-0.2 l 4.7,-11.2 c 0,-0.1 0,-0.2 0.1,-0.2 l 5.4,-11.1 c 0,-0.1 0.1,-0.2 0.1,-0.2 l 6.1,-10.9 c 0.1,-0.1 0.1,-0.2 0.2,-0.3 l 4.1,-6.3 -8.1,8.3 -8.7,9.9 -2.4,2.9 -3.5,5.1 -3.5,5.9 -3.2,6.2 -2.7,6 -2.3,6.2 v 0 l 2.1,14.8 c 1.4,0.2 2.7,0.3 3.9,0.5 z m -206.3,-2.7 7.8,-0.1 -5.5,-58.6 -3.7,-5.3 -0.7,-0.8 v -0.1 l 0.3,11.6 1.4,5.6 v 0 l 1.4,7.2 v 0.1 l 0.8,7.1 0.1,0.1 0.4,7.2 v 0 7.2 0 l -0.5,7.1 v 0.1 l -0.9,7.1 v 0 z m 86.3,-0.2 7.7,-0.1 -0.8,-4.2 v 0 l -0.9,-7.1 v 0 l -0.5,-7.2 v 0 -7.2 0 l 0.4,-7.2 v -0.1 l 0.9,-7.1 v -0.1 l 1.3,-7.2 h 0.1 l 1.3,-5.6 0.3,-11.5 v -0.1 l -0.6,0.9 -3.7,5.3 z m -8.6,-41.3 2.6,-4.5 v -0.1 l 6,-9.4 v -0.1 l 0.9,-1.3 0.8,-8.4 -1.6,2.9 -4.5,9.7 -3.7,9.7 z m -61.4,0 -0.4,-1.5 -3.7,-9.7 -4.5,-9.7 -1.6,-2.9 v 0 l 0.8,8.4 v -0.1 l 0.9,1.4 v 0.1 l 5.9,9.4 v 0.1 z m -90.5,-8.9 0.6,-10.6 -0.7,-1.2 -3.3,-5.3 v -0.1 l -0.5,13 2.6,2.8 h 0.1 z m 242.4,0 1.3,-1.4 v 0 l 2.7,-2.8 -0.6,-12.9 -3.2,5.3 -0.7,1.2 z m -183.1,50.4 h 10.1 v -0.2 l -1.5,-58.1 -1,-3.2 -2.7,-7 v 0 l -5.2,67.4 0.1,0.5 c 0,0 0,0.1 0.1,0.1 z m 113.7,-0.3 h 10.3 v -0.1 -0.1 c 0,0 0,-0.1 0.1,-0.1 l 0.1,-0.5 -5.2,-67.4 v -0.1 l -0.1,0.1 -2.6,7 -1.1,3.2 v -0.1 z m -148.4,0.4 h 7.7 v -0.1 l 0.4,-2.7 0.3,-5.6 -0.2,-5.6 -0.6,-5.7 -0.9,-5.7 -1.4,-5.6 -1.8,-5.5 -2.3,-5.5 -2.6,-5.4 -3,-5.3 -3.5,-5.3 c 0,-0.1 -0.1,-0.2 -0.1,-0.3 l -1.8,-2.1 -6.6,-6.7 -2.8,-2.6 -0.3,5.3 v 0 l 0.4,0.5 c 0,0 0,0.1 0,0.1 l 4.2,7.7 c 0,0 0,0.1 0,0.1 l 3.7,7.8 c 0,0.1 0,0.1 0.1,0.1 l 3.1,7.9 c 0,0 0,0.1 0,0.1 l 2.7,8 c 0,0 0,0 0,0.1 l 2.1,8.2 c 0,0 0,0 0,0.1 l 1.6,8.2 c 0,0 0,0 0,0 l 1.1,8.3 c 0,0 0,0 0,0.1 z m 185.5,-0.5 h 7.9 v 0 l 0.4,-6.6 c 0,0 0,-0.1 0,-0.1 l 1,-8.3 c 0,0 0,0 0,0 l 1.6,-8.2 c 0,-0.1 0,-0.1 0,-0.1 l 2.2,-8.2 c 0,0 0,-0.1 0,-0.1 l 2.6,-8 c 0,0 0,-0.1 0,-0.1 l 3.2,-7.9 c 0,0 0,0 0.1,-0.1 l 3.6,-7.8 c 0.1,0 0.1,-0.1 0.1,-0.1 l 4.1,-7.7 c 0.1,0 0.1,-0.1 0.1,-0.1 l 0.3,-0.5 v 0 l -0.3,-5.3 -2.8,2.6 -6.5,6.7 -1.9,2.1 c 0,0.1 0,0.2 -0.1,0.3 l -3.4,5.3 -3.1,5.3 -2.6,5.4 -2.2,5.5 -1.8,5.5 -1.4,5.6 -1,5.7 -0.5,5.7 -0.2,5.6 0.3,5.6 z m -142.5,-67 v -3.3 l -1.8,-2.3 -1.2,-1.4 2.5,5.4 v 0 z m 107.2,0 0.6,-1.6 v 0 l 2.4,-5.4 -1.1,1.4 -1.8,2.3 v -0.1 z m -315.8,334 c 35.1,-68.7 66.5,-144.4 94.3,-227.1 -19.1,-12.9 -25.5,-21.8 -19.1,-27 2.1,-2.8 6.7,-5.2 14,-7.1 l -0.7,-3.3 -3.1,-11.3 -3.8,-11.2 -4.6,-11 -5.3,-10.9 -6.1,-10.7 -7,-10.9 -7.7,-10.6 v 0 l -7.3,27.2 z m 524.4,0 -43.6,-313.9 -7.2,-27.2 -7.7,10.6 -7,10.9 -6.1,10.7 -5.3,10.9 -4.6,11 -3.8,11.2 -3.1,11.3 -0.7,3.4 c 7.8,2.1 12.7,4.8 14.7,8 4.5,5.7 -2.1,14.3 -19.9,26 27.9,82.9 59.4,158.6 94.3,227.1 z m -382.3,-337.4 0.1,-2.7 -4.2,-3.6 v 0.3 0 l 3.7,5.4 c 0,0 0,0.1 0.1,0.1 z m 240.3,0 0.3,-0.5 c 0,0 0,-0.1 0,-0.1 l 3.8,-5.4 v -0.3 l -4.3,3.6 z m -165.4,6.7 -1,-10.3 -3.3,-5.1 0.3,10.2 3.4,4.4 0.1,0.1 z m 90.5,0 0.5,-0.7 v -0.1 l 3.5,-4.4 0.2,-10.2 -3.3,5.1 z m -151.1,-3.7 -6.5,-10.6 -2.8,-4.2 -0.3,5.7 0.7,0.6 c 0,0 0.1,0.1 0.1,0.1 l 7.1,6.6 c 0,0 0,0 0.1,0.1 z m 211.6,0 1.7,-1.7 c 0,-0.1 0,-0.1 0.1,-0.1 l 7.1,-6.6 c 0,0 0,-0.1 0.1,-0.1 l 0.7,-0.6 v -0.1 l -0.3,-5.6 v 0 l -2.9,4.2 z m -159.5,-7.3 -0.3,-10.8 -1.5,-1.9 -0.8,9.8 v -0.1 z m 107.5,0 2.5,-2.9 -0.7,-9.8 -1.5,1.9 z m -173.4,-5.3 0.4,-8.2 -1.9,-2.9 -2.4,-3.1 v 0 l -0.4,10.6 1.6,1.3 c 0,0 0,0 0.1,0.1 z m 239.3,0 2.6,-2.2 c 0,-0.1 0.1,-0.1 0.1,-0.1 l 1.6,-1.3 -0.4,-10.6 -2.4,3.1 -2,2.9 z m -167.9,-15.7 -0.1,-1.4 -1.5,-3.3 -0.2,-0.5 v 3.1 -0.1 z m 96.5,0 1.7,-2.1 0.1,-3.1 -0.2,0.5 -1.5,3.3 v 0 z m -199.4,68.5 6.1,-42.6 v -0.1 l -5.9,-4.8 -9.7,-7.6 -10.2,-7.3 -10.9,-7.1 -11.5,-6.7 -9,-4.9 -5.1,19.3 5.6,6.9 7.4,6.4 c 0.1,0 0.1,0 0.1,0.1 l 10,9.4 c 0.1,0 0.1,0 0.1,0 l 9.4,9.7 c 0,0 0.1,0 0.1,0.1 l 8.8,9.9 c 0,0 0,0 0,0.1 l 8.2,10.2 c 0,0 0,0 0.1,0 z m 302.2,0 6.5,-9 c 0,0 0,0 0,0 l 8.2,-10.2 c 0,-0.1 0,-0.1 0.1,-0.1 l 8.8,-9.9 c 0,-0.1 0,-0.1 0,-0.1 l 9.5,-9.7 c 0,0 0,0 0,0 l 10.1,-9.5 c 0,0 0,0 0,0 l 7.5,-6.4 5.6,-6.9 -5.1,-19.3 -9.1,4.9 -11.4,6.7 -11,7.1 -10.2,7.3 -9.7,7.6 -5.8,4.9 z m -178.3,-36.2 -0.1,-2 -0.8,-6.3 -1.3,-6.4 -1.7,-6.2 -2.2,-6.2 -2.6,-6.1 -2.8,-5.6 -3.2,-5.5 -3.5,-5.4 v 0 l 1.9,20.6 v -0.1 l 0.1,0.4 v 0.1 l 1.4,4.5 2,2.6 c 0,0.1 0.1,0.1 0.1,0.2 l 6.4,9.8 c 0,0.1 0.1,0.1 0.1,0.2 l 5.6,10 c 0,0.1 0,0.2 0.1,0.2 z m 54.5,0 0.5,-1.1 c 0,-0.1 0.1,-0.2 0.1,-0.3 l 5.6,-10 c 0,-0.1 0.1,-0.1 0.1,-0.2 l 6.4,-9.8 c 0,0 0.1,-0.1 0.1,-0.2 l 2,-2.6 1.3,-4.5 v -0.1 l 0.2,-0.3 v -0.1 l 1.9,-20.5 v -0.2 0.2 l -3.6,5.4 -3.2,5.5 -2.8,5.6 -2.6,6.1 -2.1,6.2 -1.8,6.2 -1.2,6.4 -0.8,6.3 z m -171.9,-9.2 2.4,-17.5 v -0.1 l -0.1,-0.1 -1.2,-0.9 -8.7,-5.5 -9,-5.2 -9.4,-4.9 -9.7,-4.6 -10.1,-4.3 -8.9,-3.5 v 0 l -2.3,8.6 10.3,5.6 v 0 l 11.6,6.8 v 0 l 11,7.2 v 0 l 10.3,7.3 v 0.1 l 9.8,7.6 v 0 z m 289.3,0 3.9,-3.4 h 0.1 l 9.7,-7.6 0.1,-0.1 10.2,-7.3 v 0 l 11.1,-7.2 v 0 l 11.5,-6.8 v 0 l 10.4,-5.6 -2.3,-8.6 -9,3.5 -10,4.3 -9.7,4.6 -9.4,4.9 -9.1,5.2 -8.6,5.5 -1.2,0.9 -0.2,0.2 v -0.2 z m -193.8,-32.5 -1.3,-14.7 -0.2,-0.1 0.4,12.8 1,1.6 v 0.1 z m 98.2,0 0.2,-0.3 v -0.1 l 1,-1.6 v 0 l 0.3,-12.8 v 0 l -0.1,0.1 v -0.1 z m -125.2,66.1 4,-52.1 v -0.1 l -7.5,-7.4 -9.1,-8.1 -9.6,-8 -10,-7.6 -4.5,-3.2 v -0.1 l -1.2,22.8 v -0.1 l 5.6,7.6 c 0,0 0.1,0.1 0.1,0.2 l 9,13.2 c 0.1,0 0.1,0.1 0.1,0.1 l 8.2,13.5 c 0.1,0.1 0.1,0.1 0.1,0.2 l 7.5,13.6 c 0,0.1 0,0.1 0.1,0.2 l 6.6,13.8 c 0.1,0.1 0.1,0.2 0.1,0.2 z m 152.2,0 0.5,-1.3 c 0.1,0 0.1,-0.1 0.1,-0.2 l 6.7,-13.8 c 0,0 0,-0.1 0.1,-0.2 l 7.4,-13.6 c 0,-0.1 0.1,-0.1 0.1,-0.2 l 8.2,-13.5 c 0.1,0 0.1,-0.1 0.1,-0.1 l 9,-13.2 c 0.1,-0.1 0.1,-0.1 0.1,-0.2 l 5.7,-7.5 -1.2,-22.7 v -0.1 l -4.6,3.3 -10,7.7 -9.5,7.9 -9.1,8.1 -7.6,7.5 z m -297,-64.5 3.4,-12.5 -12.6,-5.5 -13.1,-5.2 -3.4,-1.2 h -1.8 l 9.5,7.7 c 0.1,0.1 0.1,0.1 0.2,0.2 l 10.9,9.7 c 0,0 0.1,0.1 0.2,0.1 z m 441.8,0 6.8,-6.7 c 0.1,0 0.1,-0.1 0.2,-0.1 l 10.8,-9.7 c 0.1,-0.1 0.2,-0.1 0.3,-0.2 l 9.5,-7.7 h -1.8 l -3.5,1.2 -13.1,5.2 -12.5,5.5 z m -437.9,-14.6 1.7,-6.5 v -0.1 l -6.7,-2 -5.4,-1.4 -13.1,0.1 12,4.8 v 0 z m 434,0 11.5,-5.1 h 0.1 l 12,-4.8 -13.1,-0.1 -5.4,1.4 -6.8,2.1 z m 215.9,652.5 -135.7,-598.7 -23.3,-64.2 v 0 c -2,0.2 -4,0.4 -6.2,0.5 l -6.4,4.7 -11.3,9.2 -10.7,9.5 -10,9.8 -4.7,5.2 139.8,525.6 c 24,34 46.8,66.8 68.5,98.4 z m -865.6,-0.7 c 22,-32 44.8,-64.7 68.4,-97.9 l 139.7,-525.4 -4.7,-5.2 -9.9,-9.8 -10.7,-9.5 -11.3,-9.2 -6.4,-4.7 c -2.2,-0.2 -4.3,-0.3 -6.2,-0.5 v 0 l -23.4,64.2 z m 291.4,-629.7 2.5,-17.6 v 0 l -2.3,-2.8 -11.1,-12.3 c 0,0 -0.1,0 -0.1,-0.1 l -44.6,0.4 v -0.1 l -1.2,4.6 v -0.1 l 0.5,0.3 c 0.1,0 0.1,0 0.2,0 l 10.4,4.1 c 0.1,0 0.1,0 0.2,0 l 10.1,4.4 c 0.1,0 0.1,0 0.2,0 l 9.8,4.7 c 0,0 0.1,0.1 0.1,0.1 l 9.5,5 c 0.1,0 0.1,0 0.2,0 l 9.1,5.3 c 0.1,0 0.1,0.1 0.1,0.1 z m 282.7,0.1 6.3,-4.1 c 0.1,0 0.1,0 0.2,-0.1 l 9.1,-5.3 c 0.1,0 0.1,0 0.1,0 l 9.6,-5 c 0,0 0,-0.1 0.1,-0.1 l 9.8,-4.7 c 0.1,0 0.1,0 0.2,0 l 10.1,-4.4 c 0.1,0 0.1,0 0.1,0 l 10.5,-4.1 c 0,0 0.1,0 0.1,0 l 0.6,-0.2 v 0 l -1.2,-4.5 -44.7,-0.4 c 0,0.1 0,0.1 0,0.1 l -11.2,12.3 -2.3,2.8 z m -259.5,-12.4 1,-20.2 v -0.1 l -0.7,-0.5 h -1.9 l -2.3,16.2 3.7,4.5 c 0.1,0 0.1,0.1 0.2,0.1 z m 236.3,0 c 0.1,0 0.1,-0.1 0.1,-0.1 l 3.7,-4.5 v -0.1 l -2.3,-16.1 -1.8,-0.1 -0.8,0.7 z m -190,13.9 0.8,-10.8 v 0 l -3.2,-3.3 -9.2,-8.5 -9.9,-8 -5.7,-4.3 -13.7,0.2 v -0.2 0.9 l 6.6,4.7 v 0 l 10.1,7.7 v 0 l 9.6,8 h 0.1 l 9.1,8.3 v 0 z m 143.7,0 5.4,-5.3 v 0 l 9.1,-8.3 v 0 l 9.7,-7.9 v -0.1 l 10,-7.7 h 0.1 l 6.5,-4.7 v -0.7 0 l -13.6,-0.1 -5.8,4.2 -9.8,8.1 -9.2,8.4 -3.3,3.3 z m -141.9,-24.1 0.7,-8.8 -1.7,-1.6 -0.6,-0.6 -11.2,0.1 8.9,7.3 c 0.1,0.1 0.1,0.1 0.2,0.2 z m 140,0 3.8,-3.4 c 0,-0.1 0.1,-0.1 0.2,-0.2 l 8.8,-7.3 -11.1,-0.1 -0.7,0.6 -1.7,1.6 z m -82,118.8 24.1,-0.1 v 0 l -0.1,-2.7 c 0,0 0,-0.1 0,-0.2 l 0.5,-10.3 c 0,-0.1 0.1,-0.1 0.1,-0.2 l 1.4,-10.3 c 0,-0.1 0,-0.1 0,-0.2 l 2.2,-10.2 c 0,-0.1 0,-0.2 0,-0.3 l 3.1,-10.1 c 0,-0.1 0,-0.1 0,-0.2 l 3.1,-8.1 v -0.1 c 0,0.1 0,0.1 0,0 l -0.1,-6.4 c 0,0 0,0 0,-0.1 l 0.3,-6.4 c 0,0 0,0 0.1,-0.1 l 0.8,-6.4 c 0,0 0,0 0,-0.1 l 1.3,-6.3 c 0,0 0,-0.1 0,-0.1 l 1.7,-6.3 c 0,0 0,-0.1 0,-0.1 l 2.2,-6.2 c 0,-0.1 0,-0.1 0.1,-0.1 l 2.6,-6.2 c 0,0 0,-0.1 0,-0.1 l 2.9,-5.6 c 0,-0.1 0,-0.1 0,-0.1 l 3.2,-5.6 c 0,0 0,0 0.1,-0.1 l 3.6,-5.4 c 0,-0.1 0,-0.1 0,-0.1 l 4,-5.3 c 0,-0.1 0,-0.1 0,-0.1 l 1,-1.2 v 0 l 0.8,-8.6 -39.4,-0.3 -15.2,-0.1 -39.4,0.4 0.8,8.6 1,1.2 c 0,0 0.1,0 0.1,0 l 3.9,5.4 c 0.1,0 0.1,0 0.1,0.1 l 3.6,5.4 c 0,0 0,0.1 0,0.1 l 3.3,5.6 c 0,0 0,0 0,0.1 l 2.8,5.6 c 0.1,0 0.1,0.1 0.1,0.1 l 2.6,6.2 c 0,0 0,0 0,0.1 l 2.2,6.2 c 0,0 0,0.1 0,0.1 l 1.8,6.3 c 0,0 0,0.1 0,0.1 l 1.3,6.3 c 0,0.1 0,0.1 0,0.1 l 0.8,6.4 c 0,0.1 0,0.1 0,0.1 l 0.4,6.4 c 0,0.1 0,0.1 0,0.1 l -0.1,6.4 c 0,0.1 0,0.1 0,0.1 v 0 l 3,8.1 c 0,0.1 0.1,0.1 0.1,0.2 l 3,10.1 c 0,0.1 0,0.2 0.1,0.3 l 2.2,10.2 c 0,0.1 0,0.1 0,0.2 l 1.4,10.3 c 0,0.1 0,0.1 0,0.2 l 0.6,10.3 c 0,0.1 0,0.1 0,0.2 z m 14.8,-372 v -0.1 z m 0,0 v -0.1 0.1 -0.1 z m 0,0 v 0 0 z m 0,0 v -0.1 0.1 -0.1 z m 0,0 v -0.1 0.1 0 0 -0.1 0.1 0 0 -0.1 z m 0,0 v 0 0 z m 0,0 v 0 c 0,0 0,0 0,0 z m 0,0 z m 0,0 v -0.1 z m -15.6,220.3 h 27.6 v 0 c -0.2,-0.9 -0.3,-1.8 -0.3,-2.7 v -217.6 h -9.9 -9.9 -9.2 v 217.6 c 0,0.9 -0.1,1.9 -0.2,2.7 v 0 z m 59.7,0 h 35.1 c -0.2,-0.9 -0.2,-1.8 -0.2,-2.7 v -217.9 l -34.7,0.1 v 217.8 c 0,0.9 -0.1,1.8 -0.2,2.7 z m -93.7,0 c -0.2,-0.9 -0.3,-1.8 -0.3,-2.7 v -217.8 l -34.6,-0.1 v 217.9 c 0,0.9 -0.1,1.8 -0.2,2.7 v 0 h 35 z m 161,-0.1 h 24.2 v -218.7 c 0,-0.7 0,-1.4 0.1,-2.1 l -24.1,0.2 v 218 c 0,0.9 -0.1,1.8 -0.2,2.6 z m -228.3,0 c -0.1,-0.8 -0.2,-1.7 -0.2,-2.6 v -218 l -24.2,-0.2 c 0.1,0.7 0.2,1.4 0.2,2.1 l -0.1,218.7 z m 285.1,0 h 36 l -0.4,-221.1 -35.7,0.2 -0.1,-0.2 c 0.2,0.9 0.2,1.6 0.2,2.4 z m -342,0 v -218.7 c 0,-0.7 0.1,-1.5 0.2,-2.2 v 0 l -35.7,-0.2 -0.5,221.1 z m 193.2,2039.7 -57.3,-0.9 c -35.5,-4.5 -62.5,-10.8 -80.9,-19.1 -29.5,-11.1 -57.6,-27.8 -84.1,-50.1 -44.7,-3.1 -112.5,-26.2 -203.4,-69.2 -86.1,-52.4 -142.5,-96.2 -169.3,-131.4 -34.2,-32.4 -71.9,-89.3 -113.2,-170.5 -42.7,-94.1 -62,-193.5 -58,-298.1 l -29.5,-10.1 c -3.5,-2 -5.2,-4.6 -5.2,-7.8 -1.8,-5 9.6,-9.5 34.4,-13.5 20.5,-77.7 44.7,-145.2 72.5,-202.5 v -0.1 l 381.6,-1047.3 c -3.6,-2 -5,-4.5 -4.1,-7.7 0.6,-3.7 3.8,-6.4 10,-8 4,-1.3 12.5,-2.3 25.6,-2.9 1.4,-0.1 6.1,-0.3 14.2,-0.6 h 4.9 l 0.4,-221.1 -4.3,-0.1 c -20.8,-0.9 -30.6,-3.9 -29.5,-9.1 -2,-5.3 7.4,-7.9 28.1,-7.9 2.5,0 5.3,0 8.2,0.1 8.5,-2.3 21,-15 37.5,-38.3 12.3,-15.8 19.7,-54.6 22,-116.5 l 177.8,-4.2 176.7,4.2 c 2.3,61.9 9.6,100.7 21.9,116.5 16.6,23.3 29,36 37.5,38.3 2.9,-0.1 5.7,-0.1 8.2,-0.1 20.7,0 30.1,2.6 28.2,7.9 1.1,5.2 -8.8,8.2 -29.5,9.1 l -4.4,0.1 0.4,221.1 h 5 c 19,0.6 30.2,1.4 33.8,2.2 9.3,1.9 14.2,4 14.7,6.3 2.6,4.6 1.7,8.1 -2.8,10.6 v 0 l 383.2,1052.2 c 30.8,63.4 54.3,129.2 70.7,197.4 27.4,5.2 38.9,10.1 34.6,14.8 2.6,4.5 -9,10.2 -34.8,17 4.1,104.6 -15.3,204 -57.9,298.1 -31.2,71 -79,138 -143.4,201.1 -29.2,33.4 -88.3,73.4 -177.6,119.9 -52.3,23.9 -107.3,40.6 -164.9,50.1 -22.9,21 -54.7,39 -95.3,54.2 -34,10.5 -61.5,15.8 -82.7,15.9 z" /></g><g
         transform="scale(1.80762)"
         id="g52"><path
           id="path54"
           style="fill:#c2ad89;fill-opacity:1;fill-rule:nonzero;stroke:none"
           d="M 5744.26,15110.1 C 5090.56,14456.5 4686.37,13553.6 4686.37,12556.2 V 4040.18 c 0,-1994.78 1617.09,-3611.848 3611.85,-3611.848 997.41,0 1900.28,404.189 2553.98,1057.868 653.7,653.7 1057.9,1556.58 1057.9,2553.97 v 8516.03 c 0,1994.8 -1617.1,3611.8 -3611.9,3611.8 -997.38,0 -1900.27,-404.2 -2553.94,-1057.9 m -93.31,93.3 c 677.42,677.5 1613.45,1096.6 2647.25,1096.6 2067.7,0 3743.8,-1676.2 3743.8,-3743.8 V 4040.17 c 0,-1033.8 -419.1,-1969.86 -1096.5,-2647.26 v -0.02 C 10268,715.482 9332.02,296.358 8298.22,296.358 c -2067.66,0 -3743.8,1676.172 -3743.8,3743.822 v 8516.02 c 0,1033.8 419.1,1969.8 1096.53,2647.2 z" /></g></g></g></svg>